<svg xmlns="http://www.w3.org/2000/svg" viewBox="0 0 800 600" role="img" aria-label="Polished cleaning service app illustration">
  <defs>
    <linearGradient id="heroBg" x1="0" y1="0" x2="1" y2="1">
      <stop offset="0%" stop-color="#f0fdf9"/>
      <stop offset="100%" stop-color="#ddf5ee"/>
    </linearGradient>
    <linearGradient id="cardGrad" x1="0" y1="0" x2="0" y2="1">
      <stop offset="0%" stop-color="#ffffff"/>
      <stop offset="100%" stop-color="#f8fffe"/>
    </linearGradient>
    <linearGradient id="navyGrad" x1="0" y1="0" x2="1" y2="1">
      <stop offset="0%" stop-color="#29476e"/>
      <stop offset="100%" stop-color="#1f3a5f"/>
    </linearGradient>
    <linearGradient id="tealGrad" x1="0" y1="0" x2="1" y2="1">
      <stop offset="0%" stop-color="#4fb6b0"/>
      <stop offset="100%" stop-color="#3a9e98"/>
    </linearGradient>
    <filter id="shadow" x="-20%" y="-20%" width="140%" height="140%">
      <feDropShadow dx="0" dy="8" stdDeviation="16" flood-color="rgba(31,58,95,0.18)"/>
    </filter>
    <filter id="shadowSm" x="-20%" y="-20%" width="140%" height="140%">
      <feDropShadow dx="0" dy="4" stdDeviation="8" flood-color="rgba(31,58,95,0.14)"/>
    </filter>
  </defs>

  <!-- Background -->
  <rect width="800" height="600" fill="url(#heroBg)"/>

  <!-- Decorative circles -->
  <circle cx="680" cy="80" r="120" fill="#4fb6b0" fill-opacity=".07"/>
  <circle cx="680" cy="80" r="72" fill="#4fb6b0" fill-opacity=".09"/>
  <circle cx="120" cy="520" r="100" fill="#1f3a5f" fill-opacity=".05"/>

  <!-- Main App Card / Phone Mockup -->
  <rect x="80" y="40" width="370" height="500" rx="32" fill="url(#cardGrad)" filter="url(#shadow)"/>
  <rect x="80" y="40" width="370" height="500" rx="32" fill="none" stroke="#e5f2ef" stroke-width="1.5"/>

  <!-- App header bar -->
  <rect x="80" y="40" width="370" height="72" rx="32" fill="url(#navyGrad)"/>
  <rect x="80" y="82" width="370" height="30" fill="url(#navyGrad)"/>

  <!-- App logo / brand in header -->
  <rect x="108" y="62" width="28" height="28" rx="8" fill="#4fb6b0"/>
  <text x="122" y="81" font-family="system-ui,sans-serif" font-size="14" font-weight="800" fill="white" text-anchor="middle">G</text>
  <rect x="148" y="66" width="80" height="10" rx="5" fill="white" fill-opacity=".85"/>
  <rect x="148" y="82" width="55" height="8" rx="4" fill="#4fb6b0" fill-opacity=".7"/>

  <!-- Header right - avatar circle -->
  <circle cx="412" cy="76" r="20" fill="#4fb6b0" fill-opacity=".25"/>
  <circle cx="412" cy="76" r="14" fill="white" fill-opacity=".35"/>

  <!-- Section: Upcoming booking card -->
  <rect x="104" y="128" width="322" height="110" rx="18" fill="url(#tealGrad)" filter="url(#shadowSm)"/>
  <!-- Calendar icon area -->
  <rect x="124" y="148" width="40" height="40" rx="10" fill="white" fill-opacity=".2"/>
  <rect x="130" y="155" width="28" height="4" rx="2" fill="white" fill-opacity=".8"/>
  <rect x="130" y="163" width="20" height="4" rx="2" fill="white" fill-opacity=".6"/>
  <rect x="130" y="171" width="24" height="4" rx="2" fill="white" fill-opacity=".6"/>
  <!-- Booking text -->
  <rect x="178" y="150" width="100" height="10" rx="5" fill="white" fill-opacity=".9"/>
  <rect x="178" y="166" width="140" height="8" rx="4" fill="white" fill-opacity=".65"/>
  <rect x="178" y="180" width="80" height="8" rx="4" fill="white" fill-opacity=".5"/>
  <!-- Status badge -->
  <rect x="312" y="148" width="82" height="26" rx="13" fill="white" fill-opacity=".2"/>
  <rect x="322" y="155" width="62" height="12" rx="6" fill="white" fill-opacity=".75"/>
  <!-- Bottom row -->
  <rect x="124" y="214" width="65" height="8" rx="4" fill="white" fill-opacity=".7"/>
  <rect x="200" y="214" width="85" height="8" rx="4" fill="white" fill-opacity=".5"/>

  <!-- Section title -->
  <rect x="104" y="258" width="90" height="10" rx="5" fill="#1f3a5f" fill-opacity=".25"/>

  <!-- Service list items -->
  <!-- Item 1 -->
  <rect x="104" y="280" width="322" height="58" rx="14" fill="white" stroke="#e8f4f0" stroke-width="1"/>
  <rect x="120" y="298" width="30" height="30" rx="9" fill="#ddf5ee"/>
  <!-- House icon suggestion -->
  <rect x="127" y="308" width="16" height="12" rx="3" fill="#4fb6b0" fill-opacity=".7"/>
  <rect x="123" y="306" width="24" height="4" rx="2" fill="#4fb6b0" fill-opacity=".5"/>
  <rect x="162" y="291" width="110" height="9" rx="4" fill="#1f3a5f" fill-opacity=".7"/>
  <rect x="162" y="306" width="155" height="8" rx="4" fill="#1f3a5f" fill-opacity=".3"/>
  <rect x="162" y="318" width="90" height="7" rx="3" fill="#1f3a5f" fill-opacity=".2"/>
  <rect x="382" y="296" width="30" height="30" rx="8" fill="#f0fdf9"/>
  <rect x="388" y="308" width="18" height="6" rx="3" fill="#4fb6b0" fill-opacity=".6"/>

  <!-- Item 2 -->
  <rect x="104" y="350" width="322" height="58" rx="14" fill="white" stroke="#e8f4f0" stroke-width="1"/>
  <rect x="120" y="368" width="30" height="30" rx="9" fill="#ddf5ee"/>
  <rect x="127" y="375" width="16" height="16" rx="4" fill="#4fb6b0" fill-opacity=".6"/>
  <rect x="127" y="380" width="8" height="6" rx="2" fill="white" fill-opacity=".7"/>
  <rect x="162" y="361" width="95" height="9" rx="4" fill="#1f3a5f" fill-opacity=".7"/>
  <rect x="162" y="376" width="145" height="8" rx="4" fill="#1f3a5f" fill-opacity=".3"/>
  <rect x="162" y="388" width="75" height="7" rx="3" fill="#1f3a5f" fill-opacity=".2"/>
  <rect x="382" y="366" width="30" height="30" rx="8" fill="#f0fdf9"/>
  <rect x="388" y="378" width="18" height="6" rx="3" fill="#4fb6b0" fill-opacity=".6"/>

  <!-- Item 3 -->
  <rect x="104" y="420" width="322" height="58" rx="14" fill="white" stroke="#e8f4f0" stroke-width="1"/>
  <rect x="120" y="438" width="30" height="30" rx="9" fill="#ddf5ee"/>
  <circle cx="135" cy="453" r="8" fill="#4fb6b0" fill-opacity=".5"/>
  <circle cx="135" cy="453" r="4" fill="white" fill-opacity=".6"/>
  <rect x="162" y="431" width="120" height="9" rx="4" fill="#1f3a5f" fill-opacity=".7"/>
  <rect x="162" y="446" width="160" height="8" rx="4" fill="#1f3a5f" fill-opacity=".3"/>
  <rect x="162" y="458" width="100" height="7" rx="3" fill="#1f3a5f" fill-opacity=".2"/>
  <rect x="382" y="436" width="30" height="30" rx="8" fill="#f0fdf9"/>
  <rect x="388" y="448" width="18" height="6" rx="3" fill="#4fb6b0" fill-opacity=".6"/>

  <!-- Bottom bar -->
  <rect x="80" y="510" width="370" height="30" fill="#f8fffe"/>
  <rect x="80" y="508" width="370" height="32" rx="0" fill="url(#cardGrad)"/>
  <rect x="80" y="508" width="370" height="2" fill="#e8f4f0"/>
  <!-- Bottom nav icons -->
  <rect x="132" y="516" width="18" height="16" rx="4" fill="#4fb6b0" fill-opacity=".7"/>
  <rect x="218" y="519" width="14" height="10" rx="3" fill="#1f3a5f" fill-opacity=".25"/>
  <rect x="302" y="519" width="14" height="10" rx="3" fill="#1f3a5f" fill-opacity=".25"/>
  <rect x="388" y="519" width="14" height="10" rx="3" fill="#1f3a5f" fill-opacity=".25"/>

  <!-- Floating badge card: Same-day handling (top right) -->
  <rect x="390" y="60" width="200" height="64" rx="18" fill="white" filter="url(#shadowSm)"/>
  <rect x="390" y="60" width="200" height="64" rx="18" fill="none" stroke="#e5f2ef" stroke-width="1"/>
  <rect x="408" y="78" width="28" height="28" rx="8" fill="#ddf5ee"/>
  <!-- Clock icon -->
  <circle cx="422" cy="92" r="9" fill="none" stroke="#4fb6b0" stroke-width="2"/>
  <line x1="422" y1="87" x2="422" y2="92" stroke="#4fb6b0" stroke-width="1.5" stroke-linecap="round"/>
  <line x1="422" y1="92" x2="426" y2="95" stroke="#4fb6b0" stroke-width="1.5" stroke-linecap="round"/>
  <rect x="448" y="80" width="120" height="10" rx="5" fill="#1f3a5f" fill-opacity=".8"/>
  <rect x="448" y="96" width="90" height="8" rx="4" fill="#1f3a5f" fill-opacity=".35"/>

  <!-- Floating badge card: Premium finish (bottom right) -->
  <rect x="430" y="430" width="195" height="64" rx="18" fill="white" filter="url(#shadowSm)"/>
  <rect x="430" y="430" width="195" height="64" rx="18" fill="none" stroke="#e5f2ef" stroke-width="1"/>
  <rect x="448" y="448" width="28" height="28" rx="8" fill="#ddf5ee"/>
  <!-- Shield icon -->
  <path d="M462 452 L468 454 L468 462 Q468 467 462 469 Q456 467 456 462 L456 454 Z" fill="none" stroke="#4fb6b0" stroke-width="1.8"/>
  <path d="M459 461 L461 463 L466 457" fill="none" stroke="#4fb6b0" stroke-width="1.5" stroke-linecap="round" stroke-linejoin="round"/>
  <rect x="488" y="450" width="115" height="10" rx="5" fill="#1f3a5f" fill-opacity=".8"/>
  <rect x="488" y="466" width="85" height="8" rx="4" fill="#1f3a5f" fill-opacity=".35"/>

  <!-- Stats row (right side middle) -->
  <rect x="490" y="180" width="90" height="90" rx="16" fill="white" filter="url(#shadowSm)"/>
  <rect x="490" y="180" width="90" height="90" rx="16" fill="none" stroke="#e8f4f0"/>
  <text x="535" y="218" font-family="system-ui,sans-serif" font-size="22" font-weight="800" fill="#1f3a5f" text-anchor="middle">4.9</text>
  <rect x="510" y="224" width="50" height="8" rx="4" fill="#4fb6b0" fill-opacity=".5"/>
  <rect x="507" y="238" width="56" height="7" rx="3" fill="#1f3a5f" fill-opacity=".3"/>
  <rect x="515" y="250" width="40" height="7" rx="3" fill="#1f3a5f" fill-opacity=".2"/>

  <rect x="600" y="200" width="90" height="90" rx="16" fill="white" filter="url(#shadowSm)"/>
  <rect x="600" y="200" width="90" height="90" rx="16" fill="none" stroke="#e8f4f0"/>
  <text x="645" y="238" font-family="system-ui,sans-serif" font-size="22" font-weight="800" fill="#1f3a5f" text-anchor="middle">98%</text>
  <rect x="615" y="248" width="60" height="8" rx="4" fill="#4fb6b0" fill-opacity=".5"/>
  <rect x="616" y="262" width="58" height="7" rx="3" fill="#1f3a5f" fill-opacity=".3"/>
  <rect x="622" y="274" width="46" height="7" rx="3" fill="#1f3a5f" fill-opacity=".2"/>

  <!-- Progress bar element -->
  <rect x="490" y="300" width="200" height="52" rx="14" fill="white" filter="url(#shadowSm)"/>
  <rect x="490" y="300" width="200" height="52" rx="14" fill="none" stroke="#e8f4f0"/>
  <rect x="508" y="316" width="164" height="8" rx="4" fill="#e8f4f0"/>
  <rect x="508" y="316" width="120" height="8" rx="4" fill="url(#tealGrad)"/>
  <rect x="508" y="330" width="90" height="6" rx="3" fill="#1f3a5f" fill-opacity=".2"/>

  <!-- Bottom decorative line -->
  <rect x="350" y="570" width="300" height="6" rx="3" fill="#4fb6b0" fill-opacity=".12"/>
</svg>
