<svg xmlns="http://www.w3.org/2000/svg" viewBox="0 0 1200 900" role="img" aria-label="Polished cleaning interior illustration">
  <defs>
    <linearGradient id="bg" x1="0" y1="0" x2="1" y2="1">
      <stop offset="0%" stop-color="#ffffff"/>
      <stop offset="100%" stop-color="#ddf5ee"/>
    </linearGradient>
    <linearGradient id="panel" x1="0" y1="0" x2="0" y2="1">
      <stop offset="0%" stop-color="#ffffff" stop-opacity="0.78"/>
      <stop offset="100%" stop-color="#dff4f0" stop-opacity="0.92"/>
    </linearGradient>
    <linearGradient id="navyGrad" x1="0" y1="0" x2="1" y2="1">
      <stop offset="0%" stop-color="#29476e"/>
      <stop offset="100%" stop-color="#1f3a5f"/>
    </linearGradient>
    <radialGradient id="glow" cx="50%" cy="50%" r="50%">
      <stop offset="0%" stop-color="#ffffff" stop-opacity="0.95"/>
      <stop offset="100%" stop-color="#ffffff" stop-opacity="0"/>
    </radialGradient>
  </defs>
  <rect width="1200" height="900" fill="url(#bg)"/>
  <circle cx="935" cy="170" r="150" fill="#fff" fill-opacity=".45"/>
  <circle cx="260" cy="160" r="180" fill="#fff" fill-opacity=".28"/>
  <rect x="115" y="120" width="340" height="430" rx="36" fill="url(#panel)"/>
  <rect x="158" y="170" width="250" height="20" rx="10" fill="#1f3a5f" fill-opacity=".10"/>
  <rect x="158" y="216" width="175" height="20" rx="10" fill="#4fb6b0" fill-opacity=".30"/>
  <rect x="158" y="262" width="210" height="20" rx="10" fill="#1f3a5f" fill-opacity=".08"/>
  <rect x="158" y="352" width="220" height="20" rx="10" fill="#1f3a5f" fill-opacity=".08"/>
  <rect x="158" y="398" width="145" height="20" rx="10" fill="#4fb6b0" fill-opacity=".22"/>
  <rect x="158" y="454" width="198" height="20" rx="10" fill="#1f3a5f" fill-opacity=".08"/>
  <circle cx="735" cy="390" r="175" fill="#1f3a5f" fill-opacity=".06"/>
  <circle cx="780" cy="355" r="108" fill="#4fb6b0" fill-opacity=".13"/>
  <rect x="668" y="470" width="350" height="156" rx="42" fill="url(#navyGrad)"/>
  <rect x="718" y="516" width="118" height="22" rx="11" fill="#ffffff" fill-opacity=".88"/>
  <rect x="718" y="554" width="170" height="18" rx="9" fill="#ddf5ee" fill-opacity=".88"/>
  <rect x="900" y="512" width="82" height="82" rx="22" fill="#4fb6b0" fill-opacity=".34"/>
  <rect x="900" y="512" width="82" height="82" rx="22" fill="none" stroke="#fff" stroke-opacity=".36"/>
  <circle cx="292" cy="690" r="116" fill="#4fb6b0" fill-opacity=".12"/>
  <rect x="186" y="618" width="248" height="48" rx="24" fill="#fff" fill-opacity=".72"/>
  <rect x="186" y="680" width="202" height="48" rx="24" fill="#fff" fill-opacity=".54"/>
  <rect x="222" y="790" width="720" height="12" rx="6" fill="#4fb6b0" fill-opacity=".18"/>
  <circle cx="1030" cy="680" r="86" fill="url(#glow)"/>
  <circle cx="1030" cy="680" r="60" fill="#ffffff" fill-opacity=".20"/>
</svg>
